<svg xmlns="http://www.w3.org/2000/svg" width="512" height="512">
    <path d="M487.8 179.4c-14.2-46.9-40.9-88.3-82-115.7-46.4-31-105.3-38.4-159.8-34.4-51.7 3.8-104.6 17.9-148.6 46-21.6 13.8-40.9 31.9-55 53.4C27.6 151.3 20 177.4 15.9 204c-2.3 15.1-3.4 30.3-4.4 45.6-.1.9.1 1.8.4 2.6-.9.9-1.5 2.2-1.5 3.8 0 30.1-.6 60.4 4.6 90.2 4.8 27.1 15.2 52.9 31.6 75.1 29.2 39.5 73.5 63.3 120.4 75 88.9 22.2 194.2 3.7 264.5-57.1 74-64 83.2-170.8 56.3-259.8zm-64.4 252.5c-70.8 60.4-176.9 76-264.9 50.8-42.7-12.2-81.9-36.6-107.2-73.7-31.1-45.6-30.1-101-30.1-153.9 0-.3 0-.5-.1-.8.5-.7.9-1.6 1-2.7 1.7-27 4.1-54.1 12.1-80.1 7.9-25.9 23.1-48.3 42.7-66.8 37.3-35.2 89.8-53.2 139.6-61.1C272 34.8 332 37.2 382.9 62.9c44.6 22.5 75.1 63.1 91.3 109.6 30.1 87.1 23.3 196.1-50.8 259.4z"/>
    <path fill="#1E4384" d="M474.2 172.5c-16.1-46.6-46.7-87.1-91.3-109.6-50.9-25.7-111-28.1-166.4-19.3-49.8 7.9-102.3 25.9-139.6 61.1-19.6 18.5-34.7 40.9-42.7 66.8-8 26-10.4 53.1-12.1 80.1-.1 1.1-.4 2-1 2.7 0 .2.1.5.1.8 0 52.9-1.1 108.3 30.1 153.9 25.3 37.1 64.5 61.5 107.2 73.7 88 25.2 194.2 9.6 264.9-50.8 74.1-63.3 80.9-172.3 50.8-259.4zM298.5 365c-4.2 5-10.6 5.4-16.6 3.9-6.1-1.5-11.8-3.9-18-4.9-6.8-1.1-13.6-2-20.3-3.4-11.1-2.2-24.5-5.2-32.4-14-1.1-.2-2.1-.9-2.8-2.2-13.7-24.4-33.7-44.1-49.9-66.7-15.3-21.4-30.5-43.1-44.6-65.2-1-1.5-1-3-.5-4.3-6.5-8.5-8.1-21.4-6.3-31.6 2-11.5 10.6-19.2 20.7-24.3 22.2-11.2 55.1-15.6 74.6 3 .8.8 1.3 1.7 1.5 2.6 18.1 19.8 28.8 44.5 44.6 65.9 8.2 11 17.8 20.8 25.7 32.1 7.6 10.9 14.3 22.3 19.5 34.5.6 1.3.6 2.4.2 3.4 3.3 6.1 3.1 13.4 3.3 20.3.3 9 2.9 17.6 4.4 26.4 1.2 7.5 2.2 18.2-3.1 24.5z"/>
    <path fill="#D6E5E5" d="M206.5 176.8c0-.1-.1-.1-.1-.2-.8-1.1-1.7-2.3-2.6-3.4-.1-.2-.3-.3-.4-.5-.8-1-1.6-2-2.5-3-.2-.2-.4-.5-.6-.7-1-1.2-2.1-2.4-3.2-3.6-.1-.2-.3-.3-.4-.5-.1-.2-.2-.3-.3-.5-1.2.6-2.7.8-4.2.2-5-1.9-12.2.5-17 2-6.9 2.2-13.6 4.9-20.1 8.1-13.9 6.8-26.2 18.8-32.3 33.2.1.1.1.2.2.3 1.3 2 2.6 3.9 3.9 5.9 1.3 2 2.7 4 4 6 8.3-11.6 21.4-20.1 33.7-26.7 12-6.4 26.4-11.8 40.2-12.6.4-.1.8-.1 1.2-.1h3.1c-.8-1.3-1.7-2.6-2.6-3.9z"/>
    <path fill="#14B6B9" d="M231.5 300c-.2-2.9-1.6-5.1-3.7-7.1-4.5-4.3-9.2-7.8-12.7-13.1-4.4-6.8-7.8-14.2-11.2-21.5-7-14.7-16.6-26.3-27.6-38.1-2.2-2.4-4.3-5.5-6.9-7.5-1.9-1.5-4.3-2.5-6-4.1-.7-.6-1.2-1.3-1.5-2-9.4 5.7-19 12.6-24.4 21.8-.1.2-.3.4-.4.6 2.7 3.8 5.3 7.7 8 11.5 7.6 10.9 14.8 22.2 22.7 33 15.6 21.2 34.2 40.3 47.5 63.1.7.3 1.3.9 1.9 1.7.3.5.7.9 1 1.3.2.2.3.4.5.5l.6.6c.5.5 1 1 1.6 1.4 0-7.1 2.8-14.7 5.2-21.1 2-5.6 4.3-11.3 7.3-16.4-1.1-1.4-1.8-2.9-1.9-4.6z"/>
    <path fill="#F26322" d="M163.8 152.6c-2 .1-4 .3-5.9.6h-.1c-.9.1-1.9.3-2.8.4h-.1c-.9.2-1.9.4-2.8.6h-.2c-.9.2-1.7.4-2.5.6-.1 0-.2.1-.4.1-.9.2-1.8.5-2.6.7-.1 0-.2 0-.2.1-.8.2-1.6.5-2.3.7-.2.1-.4.1-.5.2-.8.3-1.6.6-2.5.8-.1 0-.1 0-.2.1-.7.3-1.5.5-2.2.8-.2.1-.4.2-.6.2-.8.3-1.5.6-2.3.9-7.2 3.1-16.5 8.3-18.3 16.7-.1.4-.2.9-.2 1.3 0 .1 0 .3-.1.4-.1.3-.1.7-.2 1 0 .2 0 .3-.1.5-.1.4-.1.9-.2 1.3 0 .2 0 .4-.1.7 0 .3 0 .5-.1.8 0 .3 0 .5-.1.8v4.1c.1 3 .5 6 1.4 8.7 8-13.6 21-24.3 35.1-31 8-3.8 18.3-8.7 28.3-10.3-5.3-1.6-11.2-2.1-17.2-1.8z"/>
    <path d="M116.4 187c.1 3 .5 6 1.4 8.7-.9-2.7-1.3-5.7-1.4-8.7zm128.2 163.6c-4.4-.8-9.5-1.8-14.2-3.5 4.8 1.7 9.8 2.7 14.2 3.5z"/>
    <path d="M195.9 162.9l-.2-.2c-8.5-8.1-20.1-10.7-31.9-10.1 5.9-.3 11.8.2 17.3 1.9-10 1.6-20.3 6.5-28.3 10.3-14.1 6.6-27.1 17.4-35.1 31 .8 2.5 1.9 4.8 3.5 6.5 1.4 1.6 1.7 3.5 1.2 5.1l.6.9c-.1-.1-.1-.2-.2-.3 6-14.4 18.3-26.4 32.3-33.2 6.5-3.2 13.2-5.9 20.1-8.1 4.8-1.5 12-3.9 17-2 1.6.6 3 .4 4.2-.2-.2-.6-.4-1.1-.5-1.6z"/>
    <path fill="none" d="M221.9 200.6c.8 1.4 1.6 2.7 2.4 4.1 1 1.6 2 3.3 2.9 4.9-1.7-3-3.5-6-5.3-9zm61.3 91.7c.1-.1.1-.3.2-.4-.1.1-.1.3-.2.4zm-51.7 7.7c-.2-2.9-1.6-5.1-3.7-7.1-4.5-4.3-9.2-7.8-12.7-13.1-4.4-6.8-7.8-14.2-11.2-21.5-7-14.7-16.6-26.3-27.6-38.1-2.2-2.4-4.3-5.5-6.9-7.5-1.9-1.5-4.3-2.5-6-4.1-.7-.6-1.2-1.3-1.5-2-9.4 5.7-19 12.6-24.4 21.8-.1.2-.3.4-.4.6 2.7 3.8 5.3 7.7 8 11.5 7.6 10.9 14.8 22.2 22.7 33 15.6 21.2 34.2 40.3 47.5 63.1.7.3 1.3.9 1.9 1.7.3.5.7.9 1 1.3.2.2.3.4.5.5l.6.6c.5.5 1 1 1.6 1.4 0-7.1 2.8-14.7 5.2-21.1 2-5.6 4.3-11.3 7.3-16.4-1.1-1.4-1.8-2.9-1.9-4.6zm-18.7-110.8c.4-.5.7-1.1.9-1.8-.1.7-.4 1.3-.9 1.8zm-6.3-12.4c0-.1-.1-.1-.1-.2-.8-1.1-1.7-2.3-2.6-3.4-.1-.2-.3-.3-.4-.5-.8-1-1.6-2-2.5-3-.2-.2-.4-.5-.6-.7-1-1.2-2.1-2.4-3.2-3.6-.1-.2-.3-.3-.4-.5-.1-.2-.2-.3-.3-.5-.3-.5-.5-1-.6-1.5l-.2-.2c-8.5-8.1-20.1-10.7-31.9-10.1-2 .1-3.9.3-5.9.6h-.1c-.9.1-1.9.3-2.8.4h-.1c-.9.2-1.9.4-2.8.6h-.2c-.9.2-1.7.4-2.5.6-.1 0-.2.1-.4.1-.9.2-1.8.5-2.6.7-.1 0-.2 0-.2.1-.8.2-1.6.5-2.3.7-.2.1-.4.1-.5.2-.8.3-1.6.6-2.5.8-.1 0-.1 0-.2.1-.7.3-1.5.5-2.2.8-.2.1-.4.2-.6.2-.8.3-1.5.6-2.3.9-7.2 3.1-16.5 8.3-18.3 16.7-.1.4-.2.9-.2 1.3 0 .1 0 .3-.1.4-.1.3-.1.7-.2 1 0 .2 0 .3-.1.5-.1.4-.1.9-.2 1.3 0 .2 0 .4-.1.7 0 .3 0 .5-.1.8 0 .3 0 .5-.1.8v4.1c.1 3 .5 6 1.4 8.7.8 2.5 1.9 4.8 3.5 6.5 1.4 1.6 1.7 3.5 1.2 5.1l.6.9c1.3 2 2.6 3.9 3.9 5.9 1.3 2 2.7 4 4 6 8.3-11.6 21.4-20.1 33.7-26.7 12-6.4 26.4-11.8 40.2-12.6.4-.1.8-.1 1.2-.1h3.1c-.6-1.3-1.5-2.6-2.4-3.9z"/>
    <path fill="#14B6B9" d="M263.7 258.6c-7.7-10.6-17.1-19.9-24.6-30.6-1.1-1.5-2.1-3-3.1-4.5-.3-.5-.7-1-1-1.5-.7-1-1.4-2.1-2-3.1-.4-.6-.7-1.1-1.1-1.7-.6-1-1.3-2-1.9-3.1-.3-.6-.7-1.1-1-1.7-.6-.9-1.1-1.9-1.7-2.8l-5.4-9c-.4-.6-.8-1.3-1.1-1.9-.1-.1-.1-.2-.2-.3-2.1-3.5-4.2-7-6.4-10.4-.1-.2-.2-.4-.4-.6-.2.7-.5 1.3-.9 1.8l-.4.4c-.1 0-.1.1-.2.1-.1.1-.3.2-.4.3-.1.1-.2.1-.3.1-.1.1-.2.1-.4.2-.1 0-.3.1-.5.1-.1 0-.2.1-.3.1-.3 0-.6.1-.9.1-12.7 0-26.5 4.5-37.9 10.4.3.5.4 1 .6 1.5.8.5 1.6 1.1 2 1.3 1.8 1.3 3.1 2.7 4.6 4.3 3.9 4.3 7.9 8.4 11.8 12.7 7.9 8.7 14.6 17.9 20 28.4 5.1 10 8.8 22.9 17.4 30.5 3.4 3 7.2 5.7 9.8 9.4 1.1 1.6 2.3 3.4 2.9 5.3.2.8.3 2.2.6 3.4.6 0 1.2 0 1.8.2 7 .4 15.4-2 22.1-2.9.2 0 .5-.1.8-.1h.1c.3 0 .5-.1.8-.1.4-.1.8-.1 1.2-.2.4-.1.7-.1 1.1-.2h.1c.4-.1.8-.1 1.2-.2h.1c.4-.1.8-.1 1.2-.2h.1c.4 0 .9-.1 1.3-.1s.9-.1 1.3-.1c.6-.4 1.4-.6 2.1-.6h3c.6 0 1.2-.1 1.7-.2.2-.1 1.1-.3 1.3-.4.2-.1.4-.1.6-.2.1-.1.1-.3.2-.4-5.3-12-12-23.1-19.7-33.5z"/>
    <path fill="#FCBF95" d="M290.6 336.1c-1.5-6.9-3.2-14-3.3-21.1v-2.5c0-1.6 0-3.2-.1-4.8v-.2c0-.4-.1-.8-.1-1.2v-.3c0-.4-.1-.9-.2-1.3v-.1c-.1-.5-.1-1-.2-1.4h-5c-.4.4-.9.7-1.4 1h-.1c-.2.1-.4.2-.6.2-.1 0-.1 0-.2.1-.2.1-.4.1-.6.1h-1.1c-.2 0-.3 0-.5-.1h-.3c-.2 0-.3-.1-.5-.1-.1 0-.2 0-.2-.1-.2-.1-.5-.2-.7-.4-1.6.1-3.1.2-4.7.4-3.8.5-7.5 1-11.3 1.6-5.1.7-10.5 1.9-15.8 1.9-.4.4-.9.8-1.4 1.1-.3.6-.6 1.1-1 1.8-1.9 3.6-3.5 7.4-5 11.2-2.6 6.6-6.3 15-5.3 22.3.2 1.2-.1 2.2-.5 2.9 4.7 1.6 9.8 2.6 14.2 3.5.7.1 1.4.3 2.1.4 10.7 2 21.4 3.1 31.7 6.5 2.2.7 10.7 4.3 12.3 1.2 3.4-6.8 1.3-15.7-.2-22.6z"/>
    <path d="M301.6 340.6c-1.4-8.8-4-17.4-4.4-26.4-.3-6.9 0-14.2-3.3-20.3.4-1 .4-2.1-.2-3.4-5.3-12.2-12-23.6-19.5-34.5-7.9-11.3-17.6-21.1-25.7-32.1-15.8-21.4-26.5-46.1-44.6-65.9-.2-.9-.7-1.8-1.5-2.6-19.5-18.6-52.4-14.2-74.6-3-10.1 5.1-18.7 12.7-20.7 24.3-1.8 10.2-.2 23.1 6.3 31.6-.5 1.3-.4 2.8.5 4.3 14.2 22.1 29.4 43.9 44.6 65.2 16.2 22.6 36.1 42.4 49.9 66.7.7 1.3 1.7 2 2.8 2.2 8 8.7 21.4 11.7 32.4 14 6.7 1.4 13.6 2.3 20.3 3.4 6.2 1 11.9 3.4 18 4.9 5.9 1.5 12.4 1.1 16.6-3.9 5.3-6.4 4.3-17.1 3.1-24.5zM126.9 214.1c-1.3-2-2.6-3.9-3.9-5.9l-.6-.9c.5-1.6.3-3.5-1.2-5.1-1.6-1.8-2.8-4-3.5-6.5-.9-2.7-1.3-5.7-1.4-8.7v-4.1c0-.3 0-.5.1-.8 0-.3 0-.5.1-.8 0-.2 0-.4.1-.7 0-.5.1-.9.2-1.3 0-.2 0-.3.1-.5 0-.3.1-.7.2-1 0-.1 0-.3.1-.4.1-.4.2-.9.2-1.3 1.8-8.4 11.1-13.6 18.3-16.7.7-.3 1.5-.6 2.3-.9.2-.1.4-.2.6-.2.7-.3 1.4-.6 2.2-.8.1 0 .1-.1.2-.1.8-.3 1.6-.6 2.5-.8.2-.1.4-.1.5-.2.8-.2 1.5-.5 2.3-.7.1 0 .2 0 .2-.1.9-.3 1.8-.5 2.6-.7.1 0 .2-.1.4-.1.8-.2 1.7-.4 2.5-.6h.2c.9-.2 1.9-.4 2.8-.6h.1c.9-.2 1.9-.3 2.8-.4h.1c2-.3 3.9-.5 5.9-.6 11.7-.6 23.3 2 31.9 10.1l.2.2c.1.5.3 1 .6 1.5.1.2.2.3.3.5.1.2.2.3.4.5 1.1 1.2 2.2 2.4 3.2 3.6.2.2.4.5.6.7.8 1 1.7 2 2.5 3 .1.2.3.3.4.5.9 1.1 1.7 2.2 2.6 3.4 0 .1.1.1.1.2.9 1.3 1.8 2.5 2.7 3.8h-3.1c-.4 0-.8.1-1.2.1-13.8.9-28.2 6.3-40.2 12.6-12.3 6.6-25.5 15.1-33.7 26.7-1.6-1.9-2.9-3.9-4.3-5.9zm93.9 128c-.6-.5-1.1-.9-1.6-1.4l-.6-.6-.5-.5c-.4-.4-.7-.9-1-1.3-.5-.8-1.2-1.3-1.9-1.7-13.4-22.8-31.9-41.9-47.5-63.1-7.9-10.7-15.1-22-22.7-33-2.7-3.8-5.3-7.6-8-11.5.2-.2.3-.4.4-.6 5.4-9.3 14.9-16.2 24.4-21.8.3.7.8 1.4 1.5 2 1.7 1.6 4.1 2.7 6 4.1 2.6 2 4.7 5.1 6.9 7.5 11 11.8 20.6 23.4 27.6 38.1 3.5 7.3 6.8 14.7 11.2 21.5 3.5 5.3 8.2 8.9 12.7 13.1 2.1 2 3.5 4.1 3.7 7.1.1 1.7.8 3.2 1.8 4.6-3 5.2-5.2 10.9-7.3 16.4-2.3 6.4-5.2 13.9-5.1 21.1zm70 16.5c-1.6 3.2-10.2-.5-12.3-1.2-10.4-3.4-21-4.5-31.7-6.5-.7-.1-1.4-.3-2.1-.4-4.4-.8-9.5-1.8-14.2-3.5.5-.8.7-1.8.5-2.9-.9-7.3 2.7-15.6 5.3-22.3 1.5-3.8 3.1-7.5 5-11.2.3-.7.7-1.2 1-1.8.5-.3.9-.7 1.4-1.1 5.3 0 10.8-1.2 15.8-1.9 3.8-.6 7.5-1.1 11.3-1.6 1.6-.2 3.1-.3 4.7-.4.2.1.4.3.7.4.1 0 .2.1.2.1.2.1.3.1.5.1h.3c.2 0 .3 0 .5.1h1.1c.2 0 .4-.1.6-.1.1 0 .1 0 .2-.1.2-.1.4-.2.6-.2h.1c.5-.2 1-.6 1.4-1 1.3-1.2 2.1-3 1.6-5.1-.8-3.6-4.7-4.4-8.7-4.2-.4 0-.9 0-1.3.1-.4 0-.9.1-1.3.1h-.1c-.4 0-.8.1-1.2.2h-.1c-.4.1-.8.1-1.2.2h-.1c-.4.1-.8.1-1.1.2-.4.1-.8.1-1.2.2-.3.1-.6.1-.8.1h-.1c-.3 0-.6.1-.8.1-6.8 1-15.2 3.3-22.1 2.9-.6-.1-1.2-.2-1.8-.2-.3-1.2-.4-2.6-.6-3.4-.5-1.9-1.7-3.7-2.9-5.3-2.7-3.7-6.5-6.4-9.8-9.4-8.6-7.7-12.3-20.5-17.4-30.5-5.4-10.5-12.1-19.6-20-28.4-3.9-4.3-7.9-8.4-11.8-12.7-1.5-1.6-2.8-3-4.6-4.3-.4-.3-1.2-.8-2-1.3-.1-.5-.3-1-.6-1.5 11.4-5.9 25.2-10.4 37.9-10.4.3 0 .6 0 .9-.1.1 0 .2-.1.3-.1.2 0 .3-.1.5-.1.1 0 .2-.1.4-.2.1 0 .2-.1.3-.1.1-.1.3-.2.4-.3.1 0 .1-.1.2-.1.2-.1.3-.3.4-.4.4-.5.7-1.1.9-1.8 2.8 4.3 5.5 8.8 8.1 13.2.8 1.4 1.6 2.7 2.4 4.1 1 1.6 2 3.3 2.9 4.9.6.9 1.1 1.9 1.7 2.8.3.6.7 1.1 1 1.7.6 1 1.3 2 1.9 3.1.4.6.7 1.1 1.1 1.7.7 1.1 1.4 2.1 2 3.1.3.5.7 1 1 1.5 1 1.5 2 3 3.1 4.5 7.6 10.7 16.9 20 24.6 30.6 7.6 10.4 14.4 21.5 19.7 33.3-.1.1-.1.3-.2.4-.6 1.3-.5 2.9.7 4.5 1.7 2.3 2.6 4.9 2.9 7.7v.1c.1.4.1.9.2 1.3v.3c0 .4.1.8.1 1.2v.2c.1 1.6.1 3.2.1 4.8v2.5c.2 7.1 1.9 14.2 3.3 21.1 1.6 7.1 3.7 16 .3 22.7z"/>
    <path d="M230.4 347.2c4.7 1.6 9.8 2.6 14.2 3.5-4.4-.9-9.4-1.9-14.2-3.5zm-16.7-159.8c.1.2.2.3.3.5 0-.1-.1-.3-.3-.5zm.4.5c1.2 1.9 2.4 3.7 3.5 5.6-1.1-1.8-2.3-3.7-3.5-5.6 0 .1 0 0 0 0zm6.6 10.8c-.1-.1-.1-.2-.2-.3-.6-.9-1.1-1.8-1.7-2.8 1 1.7 2 3.3 3 5-.3-.6-.7-1.3-1.1-1.9zm66.4 108.9c.1 1.6.1 3.2.1 4.8 0-1.6 0-3.2-.1-4.8zm-3.9-15.3c-.2.1-.4.2-.6.2-.2.1-1.1.3-1.3.4-.6.1-1.1.1-1.7.2h-3c-.8 0-1.5.2-2.1.6 4.1-.2 7.9.6 8.7 4.2.5 2.2-.3 4-1.6 5.1h5c-.5-2.3-1.3-4.4-2.7-6.3-1.2-1.5-1.3-3-.7-4.4zm3.4 10.8zM157.9 153.2c2-.3 3.9-.5 5.9-.6-1.9.1-3.9.3-5.9.6z"/>
    <path fill="#D6E5E5" d="M376.4 200.7c-17.3-12-39.5-14.9-59.9-12-11.3 1.6-22.6 5.2-33.5 8.5-11.4 3.5-23.6 7.8-32.7 15.7-4.8 4.2.7 12.5 5.6 8.3 8.6-7.4 19.7-11.2 30.5-14.6 10.5-3.3 21.4-6.7 32.3-8.2 20-2.8 42.1.9 57.5 14.7 17.3 15.5 17.7 40.7 10.4 61.3-8.4 23.5-26.4 44-48.5 55.4-12.5 6.5-26.2 12.2-34 24.5-3.5 5.5 5.6 9.8 9 4.4 5.6-8.9 16.8-13.7 25.9-18.3 9.9-5 18.6-10.5 26.9-18 19.5-17.6 33.8-43.2 35.2-69.7.8-20.5-7.5-40.1-24.7-52z"/>
    <path fill="#D6E5E5" d="M413.1 172.1c-19.3-16.4-42.9-23.6-68.1-23.1-25.7.5-51 8.6-74.9 17.4-13.9 5.1-27.5 10.8-41.3 16.1-6 2.3-2.7 11.8 3.3 9.4 23.6-9 46.8-19 71.1-25.9 24.2-6.8 50.2-10.3 74.7-2.7 22.1 6.8 41.6 24.7 51 45.7 8.8 19.7 8.8 41.9 2.9 62.4-6.8 23.6-22.5 41.8-40.1 58.3-20.7 19.4-44.1 35.9-68.5 50.4-39 23.1-82.4 42.8-128.6 41.7-16.7-.4-34.2-4.4-47.9-14.4-13.4-9.8-21.1-24.9-23.7-41-2.7-16.8-1.7-34.3 2.6-50.7 3.9-14.8 12-30.9 27.1-36.8 6-2.3 2.7-11.8-3.3-9.4-17.3 6.8-26.8 23-32.3 39.9-5.8 18-6.9 38.1-4.2 56.7 2.6 18 10.6 34.8 24.7 46.7 14.6 12.4 34.1 17.6 53 18.7 45.2 2.7 87.7-15.2 126.5-36.4 24.9-13.6 48.5-29.6 70.2-48 18.9-16.1 37-33.8 47.9-56.4 19-40.2 12.5-89.2-22.1-118.6zm-291.9 67.8c-15.8 12.8-25.9 29.6-33.2 48.4-2.3 6 6.6 10.5 9 4.4 6.6-17 15.4-32.9 29.8-44.6 4.9-3.9-.6-12.2-5.6-8.2z"/>
    <path d="M290.3 342.3c-.7.3-1.4.6-2 .9-5.8 2.5-11.8 4.2-17.1 7.7-4.4 2.8-1.6 9 2.8 9.1 2 2.3 5 2.2 7 .8 2.3 1.7 5.9 1.8 7.5-1.6 1.3-2.8 1.7-5.8 4.5-7.2.2-.1.4-.2.7-.3 5.6-2.7 2.8-11.7-3.4-9.4z"/>
</svg>
